<mxfile host="app.diagrams.net" modified="2022-09-27T13:16:53.673Z" agent="5.0 (Macintosh)" etag="FRWSXLNsBdmCn8XMvWzl" version="20.3.3" type="github">
  <diagram id="kgpKYQtTHZ0yAKxKKP6v" name="Page-1">
    <mxGraphModel dx="1426" dy="795" grid="1" gridSize="10" guides="1" tooltips="1" connect="1" arrows="1" fold="1" page="1" pageScale="1" pageWidth="850" pageHeight="1100" math="0" shadow="0">
      <root>
        <mxCell id="0" />
        <mxCell id="1" parent="0" />
        <mxCell id="3nuBFxr9cyL0pnOWT2aG-1" value="Hybris-FO-Page" style="shape=umlLifeline;perimeter=lifelinePerimeter;container=1;collapsible=0;recursiveResize=0;rounded=0;shadow=0;strokeWidth=1;fontStyle=0" parent="1" vertex="1">
          <mxGeometry x="120" y="80" width="100" height="300" as="geometry" />
        </mxCell>
        <mxCell id="3nuBFxr9cyL0pnOWT2aG-2" value="" style="points=[];perimeter=orthogonalPerimeter;rounded=0;shadow=0;strokeWidth=1;fontStyle=0" parent="3nuBFxr9cyL0pnOWT2aG-1" vertex="1">
          <mxGeometry x="45" y="70" width="10" height="190" as="geometry" />
        </mxCell>
        <mxCell id="nccHA3XHwkP4lEpM9j3j-6" value="" style="html=1;points=[];perimeter=orthogonalPerimeter;fontStyle=0" vertex="1" parent="3nuBFxr9cyL0pnOWT2aG-1">
          <mxGeometry x="50" y="144" width="10" height="40" as="geometry" />
        </mxCell>
        <mxCell id="nccHA3XHwkP4lEpM9j3j-7" value="cache response" style="edgeStyle=orthogonalEdgeStyle;html=1;align=left;spacingLeft=2;endArrow=block;rounded=0;entryX=1;entryY=0;fontStyle=0" edge="1" parent="3nuBFxr9cyL0pnOWT2aG-1">
          <mxGeometry relative="1" as="geometry">
            <mxPoint x="56" y="125" as="sourcePoint" />
            <Array as="points">
              <mxPoint x="86" y="125" />
            </Array>
            <mxPoint x="61" y="145" as="targetPoint" />
          </mxGeometry>
        </mxCell>
        <mxCell id="nccHA3XHwkP4lEpM9j3j-8" value="" style="html=1;points=[];perimeter=orthogonalPerimeter;fontStyle=0" vertex="1" parent="3nuBFxr9cyL0pnOWT2aG-1">
          <mxGeometry x="50" y="204" width="10" height="40" as="geometry" />
        </mxCell>
        <mxCell id="nccHA3XHwkP4lEpM9j3j-9" value="plug the response to the View/ " style="edgeStyle=orthogonalEdgeStyle;html=1;align=left;spacingLeft=2;endArrow=block;rounded=0;entryX=1;entryY=0;fontStyle=0" edge="1" target="nccHA3XHwkP4lEpM9j3j-8" parent="3nuBFxr9cyL0pnOWT2aG-1">
          <mxGeometry relative="1" as="geometry">
            <mxPoint x="55" y="184" as="sourcePoint" />
            <Array as="points">
              <mxPoint x="85" y="184" />
            </Array>
          </mxGeometry>
        </mxCell>
        <mxCell id="3nuBFxr9cyL0pnOWT2aG-5" value="Styla-Server" style="shape=umlLifeline;perimeter=lifelinePerimeter;container=1;collapsible=0;recursiveResize=0;rounded=0;shadow=0;strokeWidth=1;fontStyle=0" parent="1" vertex="1">
          <mxGeometry x="480" y="80" width="100" height="300" as="geometry" />
        </mxCell>
        <mxCell id="3nuBFxr9cyL0pnOWT2aG-6" value="" style="points=[];perimeter=orthogonalPerimeter;rounded=0;shadow=0;strokeWidth=1;fontStyle=0" parent="3nuBFxr9cyL0pnOWT2aG-5" vertex="1">
          <mxGeometry x="45" y="80" width="10" height="40" as="geometry" />
        </mxCell>
        <mxCell id="3nuBFxr9cyL0pnOWT2aG-8" value="Request Styla" style="verticalAlign=bottom;endArrow=block;entryX=0;entryY=0;shadow=0;strokeWidth=1;fontStyle=0" parent="1" source="3nuBFxr9cyL0pnOWT2aG-2" target="3nuBFxr9cyL0pnOWT2aG-6" edge="1">
          <mxGeometry relative="1" as="geometry">
            <mxPoint x="275" y="160" as="sourcePoint" />
          </mxGeometry>
        </mxCell>
        <mxCell id="3nuBFxr9cyL0pnOWT2aG-9" value="Equivalent SEO response in JSON format" style="verticalAlign=bottom;endArrow=block;shadow=0;strokeWidth=1;fontStyle=0" parent="1" edge="1">
          <mxGeometry relative="1" as="geometry">
            <mxPoint x="525" y="196" as="sourcePoint" />
            <mxPoint x="171" y="196" as="targetPoint" />
          </mxGeometry>
        </mxCell>
        <mxCell id="nccHA3XHwkP4lEpM9j3j-5" style="edgeStyle=orthogonalEdgeStyle;rounded=0;orthogonalLoop=1;jettySize=auto;html=1;fontStyle=0" edge="1" parent="1" source="nccHA3XHwkP4lEpM9j3j-4" target="3nuBFxr9cyL0pnOWT2aG-1">
          <mxGeometry relative="1" as="geometry">
            <Array as="points">
              <mxPoint x="90" y="160" />
              <mxPoint x="90" y="160" />
            </Array>
          </mxGeometry>
        </mxCell>
        <mxCell id="nccHA3XHwkP4lEpM9j3j-11" value="navigate" style="edgeLabel;html=1;align=center;verticalAlign=middle;resizable=0;points=[];fontStyle=0" vertex="1" connectable="0" parent="nccHA3XHwkP4lEpM9j3j-5">
          <mxGeometry x="-0.02" y="4" relative="1" as="geometry">
            <mxPoint as="offset" />
          </mxGeometry>
        </mxCell>
        <mxCell id="nccHA3XHwkP4lEpM9j3j-4" value="" style="shape=umlLifeline;participant=umlActor;perimeter=lifelinePerimeter;whiteSpace=wrap;html=1;container=1;collapsible=0;recursiveResize=0;verticalAlign=top;spacingTop=36;outlineConnect=0;fontStyle=0" vertex="1" parent="1">
          <mxGeometry x="10" y="90" width="20" height="300" as="geometry" />
        </mxCell>
        <mxCell id="nccHA3XHwkP4lEpM9j3j-13" style="edgeStyle=orthogonalEdgeStyle;rounded=0;orthogonalLoop=1;jettySize=auto;html=1;" edge="1" parent="1" source="nccHA3XHwkP4lEpM9j3j-10">
          <mxGeometry relative="1" as="geometry">
            <mxPoint x="350" y="280" as="targetPoint" />
          </mxGeometry>
        </mxCell>
        <mxCell id="nccHA3XHwkP4lEpM9j3j-10" value="&lt;div align=&quot;left&quot;&gt;&lt;ul&gt;&lt;li&gt;inject HTML: &lt;br&gt;&lt;/li&gt;&lt;li&gt;Head&lt;br&gt;&lt;/li&gt;&lt;ul&gt;&lt;li&gt;&amp;nbsp;meta tags&lt;/li&gt;&lt;li&gt;CSS&lt;/li&gt;&lt;li&gt;js&lt;/li&gt;&lt;/ul&gt;&lt;li&gt;Body&lt;/li&gt;&lt;ul&gt;&lt;li&gt;Divs contains Content managed by Styla &lt;br&gt;&lt;/li&gt;&lt;/ul&gt;&lt;/ul&gt;&lt;/div&gt;" style="shape=note2;boundedLbl=1;whiteSpace=wrap;html=1;size=25;verticalAlign=top;align=left;fontStyle=0" vertex="1" parent="1">
          <mxGeometry x="190" y="400" width="320" height="230" as="geometry" />
        </mxCell>
        <mxCell id="nccHA3XHwkP4lEpM9j3j-16" style="edgeStyle=orthogonalEdgeStyle;rounded=0;orthogonalLoop=1;jettySize=auto;html=1;entryX=1.1;entryY=0.85;entryDx=0;entryDy=0;entryPerimeter=0;" edge="1" parent="1" source="nccHA3XHwkP4lEpM9j3j-14" target="3nuBFxr9cyL0pnOWT2aG-6">
          <mxGeometry relative="1" as="geometry" />
        </mxCell>
        <mxCell id="nccHA3XHwkP4lEpM9j3j-14" value="" style="shape=image;verticalLabelPosition=bottom;labelBackgroundColor=default;verticalAlign=top;aspect=fixed;imageAspect=0;image=data:image/png,iVBORw0KGgoAAAANSUhEUgAAAOkAAAC9CAYAAABWKFoCAAABV2lDQ1BJQ0MgUHJvZmlsZQAAKJFtkMErg3EYxz9jWrREOTG1nJZGeje5KM0OUg5rQ7i977vXhm1e7yYcXZxcHZWDP8CBlMucRLmJOMmFP0AtxXo974ZteOrp++nbt1/P7wtNbtU0M24gmytY8Ylx/9z8gt/zTCs9sj4Cqp43I7HYlET41sYp3eFy9GbAeWv74ulE02bDY3s+o9h9dP033zBtSSOvi37I9uumVQBXQDi2UTAd3hTusuQo4V2HU1U+cFir8nElMx2PCl8Kd+hpNSl8LxzU6vxUHWcz6/rXDc71XiM3kxBtl/WRQCFMlBDDDEk3/2fDlWyUVUy2sFgiRZoCfiLimGQwhCfJoTNIUFiR1xQUp+Pf3dW85UcYeYGmlZqn98HpFXTu1LzArXwjBsVRU7XUn0ZdJXd+MaRU2WtBy5ttv/aC5wzKlm2/79t2+RCaH+B87RMVQ2IaBKVYmQAAAHplWElmTU0AKgAAAAgABAEGAAMAAAABAAIAAAESAAMAAAABAAEAAAEoAAMAAAABAAIAAIdpAAQAAAABAAAAPgAAAAAAA5KGAAcAAAASAAAAaKACAAQAAAABAAAA6aADAAQAAAABAAAAvQAAAABBU0NJSQAAAFNjcmVlbnNob3RsdsUUAAAC72lUWHRYTUw6Y29tLmFkb2JlLnhtcAAAAAAAPHg6eG1wbWV0YSB4bWxuczp4PSJhZG9iZTpuczptZXRhLyIgeDp4bXB0az0iWE1QIENvcmUgNi4wLjAiPgogICA8cmRmOlJERiB4bWxuczpyZGY9Imh0dHA6Ly93d3cudzMub3JnLzE5OTkvMDIvMjItcmRmLXN5bnRheC1ucyMiPgogICAgICA8cmRmOkRlc2NyaXB0aW9uIHJkZjphYm91dD0iIgogICAgICAgICAgICB4bWxuczp0aWZmPSJodHRwOi8vbnMuYWRvYmUuY29tL3RpZmYvMS4wLyIKICAgICAgICAgICAgeG1sbnM6ZXhpZj0iaHR0cDovL25zLmFkb2JlLmNvbS9leGlmLzEuMC8iPgogICAgICAgICA8dGlmZjpDb21wcmVzc2lvbj4xPC90aWZmOkNvbXByZXNzaW9uPgogICAgICAgICA8dGlmZjpSZXNvbHV0aW9uVW5pdD4yPC90aWZmOlJlc29sdXRpb25Vbml0PgogICAgICAgICA8dGlmZjpQaG90b21ldHJpY0ludGVycHJldGF0aW9uPjI8L3RpZmY6UGhvdG9tZXRyaWNJbnRlcnByZXRhdGlvbj4KICAgICAgICAgPHRpZmY6T3JpZW50YXRpb24+MTwvdGlmZjpPcmllbnRhdGlvbj4KICAgICAgICAgPGV4aWY6UGl4ZWxYRGltZW5zaW9uPjIzMzwvZXhpZjpQaXhlbFhEaW1lbnNpb24+CiAgICAgICAgIDxleGlmOlVzZXJDb21tZW50PlNjcmVlbnNob3Q8L2V4aWY6VXNlckNvbW1lbnQ+CiAgICAgICAgIDxleGlmOlBpeGVsWURpbWVuc2lvbj4xODk8L2V4aWY6UGl4ZWxZRGltZW5zaW9uPgogICAgICA8L3JkZjpEZXNjcmlwdGlvbj4KICAgPC9yZGY6UkRGPgo8L3g6eG1wbWV0YT4KYxQZPwAAMihJREFUeAHtXQm8TdX3XxKKp8HLPMcjGUooRfVQUVLKPCXRL6X5H8lM/SQNRBMRFaUimUmmSqakzDKGZ4inn6lIOv/1Xeft+8697557zr33DXfY6/O59+yz573OWWetvc7Z353LYCJNmgOaAxHLgQsitme6Y5oDmgPCAS2kMXIjpB5LdT2SM2fO0J9//uk6v86Ysxy40K75n376yS7Jb/x1113nNz4SI7/99lu67LLLqEaNGgG7d/z4cfr2u++ofr16dPnllwfMm1OJw4cPp6NHj0rz/fr1o0suucSxK1OmTKHNmzdTrly5qE6dOtSyZUvHMjpDznHAVkhzrktZ3/L8+fPpiiuucBTSHTt20Hcs0MWKFpWbOTN79u+//9KoUaMoOTmZrr322pCq3r9/vwhomTJlqG3bth4B7dOnD6F+X6pbty41b96cHnjgAdq+fTt9/PHHtG7dOi2kvoyKsHNHIXXSkMFq3Agbf8DulC5dmqpVq0YQgsyms2fP0oEDBwgPglCFdOvWrdKtm2++WR46qo/Vqlejf879o05pz549dOrUKc9D6YILLqDKlStLmUOHDnny6UBkcsBRSCOz2869grbctGkTwXldtWpVuvPOO70KIX7ChAn0+++/U8mSJalDhw5i/iETbuoFCxZ48sMs9KVVq1YRfpjflS1bltq0aeObhWbOnClCeO7cOSpVqhS1aNGCLrroInr//ffpn39MIYKgjRkzRso++OCDlC9fvgz12EUoxzzqtFL7du2tpwQzGHmuvPJKr/gL8+TxOtcnkckBRyHNak05YMAAmR/5Yw+02KBBg/wlBYyD8G3ZsoVy584t+ZYsWUIpKSnUrVs3T7nDhw+LgObhG3X9+vV05MgReuaZZyQdThWcQ7j++usv+u2336hIkSKesl988QWtWbNG6kf5tWvXSv3PPvusJ8+wYcPo2LFjkqdAgQLSRrFixahRo0bSrjJHoVHRFkjFeSpxCBw8eFByFCxY0Dbnzz//TH///TfVrl07Q54E7hfaxNz70ksvzZCuIyKDA45CmtXm7sMPP0w9e/b0aBbFlgsvvNBLqFS80xHaBdopf/78hAcA6MUXX5Q5GG7WvHnzShy0Y6/ne1FioUR6/fXXCUKr6Oqrryb8IHyfffaZipYjNOePP/5ICQkJnvoxt9u4caNoVWisZcuWiYCWYQ37eI8eUg4a+/z58xLu27evCP/AgQPpmmuuCXpOiHkkHiwYJzRviRIlvPpoPfnmm2/EQmjWrJk1WsL16teTB+Sbb74ppvD1118fsK4MFeiIbOFAjr+CwbyvYcOGGQYLjQMTMViC1oOgwoTF3As/zCkRt3v3bk91uLkhoKBKPD+DRlFzPE8mPwFlQkPb9u/fX34oh/phYoNUPXdZTGxo4uLFi/upMfgoCB76gT7DGWRHeKBASxcqVIguvvjiDNkqXFlBeIz56sqVK+mXX37JkEdH5DwHHDVpdnSxfYf2tGLFCjp58qQ0h9cI7dq3C6np//3vf1ION6YiFVZpiLfO44oULixZ9+7dS1dddZUq5vf4xx9/SDweIFYTGJFVqlSRNPUOEnPVrCBYHjBRoQG/41dETZs29dsM5sR4eNSvX99v+sKFCwke4mtrXku+81i/BXRkjnAgIoQ0oUAC3XvvvTRp0iRhAhwsiAuFypcvL8WgURXBEQQqV66cHPEH7aHo119/leCNN96oomyPFSpUkDS8wmndurXffHgoYL64dOlSmYP6y6Tmy9B2oRDmkDCVly9fTrt27crgFEKdMMExbajH73n90Xb2LMPsb9umrb9kHRchHIgIIQUvoA0WLVpEcMT4emKD4RVuXpiymAPOmj2bcrO5C4HBXLQov+9UBO/q+PHjRfvBPIVmDeSAUeXwEEBeOGRAt912m5jREMgnnnhC0u644w6Z68FhBccQnDZz586l6tWrU61ataQc+oN+4gEBL3Fh1uao258nWQr4+YNDCuRP0DEmxKuHip/i9C/PkdEepgSaIpcDESOkEE68ZMcx3JsGr0M++eQT+RABrIfW8v2qBkICAdm2bZvcqLfffrvrq9S1a1f64IMPCJ5v5f2GxlKEuScEFeYkhBc/CIPv+1AIL8z8adOmSVG3XwypdtRXUJifwtFlJfUKyc4UhhkM77O139byOhw5HMjFF8vvKhh187ntqpMX2G09mZkPjiIMz/f9oGoDmgYfE2AuqcxPlYbjjBkzxJzEqxl/Th/MT2FKw0nlOz9V9cDsxly7UqVKHs+ySgv3CG/1oEGDxDOOBxu8xm6sgalTp8orJPAGwv0gv5/VFLkciGkhDZXteO0CwcJcDzf/Sy+9FGpVWV4Or3VgeuP7XZje/h42vp3AgwMPpzJly1BSxSTfZH0eYRywFdII62e2dgfvVTGXhDl59913yyd02doB3ZjmgIUDWkgtzNBBzYFI5IB260XiVdF90hywcEALqYUZOqg5EIkc0EIaiVdF90lzwMIBLaQWZuig5kAkckALaSReFd0nzQELB7SQWpihg5oDkcgBLaSReFV0nzQHLBzQQmphhg5qDkQiB7SQRuJV0X3SHLBwIH3phiUSwVj4wN5nSHF3CoiVyZMny7ixvG7w4MGZxoMXXnjBg8k0dOhQV98MZ1rjcVaRrZDGGR+CHi5Wv3z66acCXmZFeQi6oiwsAHgVrHTBYnYsEPdH7777rgCtAfStY8eOkgXL8NRCeFUGa3EVUBvisKwQIOM7d+5UWfQxizjgKKROS9CC1bhZNI5srxZCOnr0aOrevbsXFEu2d8RFg1hm52+5HlbPKNwnLChQ9CcjJEK4AYWqyIpqgTgs79uwYYNK1scs5ICjkGZh29lW9SuvvEKdO3cmQGqGS0AVnD59ukeDAD4UyISAU1ELy7HEDYuuIQBAigDG0K233urV9JdffilrOpOSkgSpD0KvyiMjIEkXLV5Me3lZGQQEkDJWZAmvykI4gRBisTnqtCIlqqqwSB3aUlPOc8BRSGNBUwKaEzCYt9xyC7Vv3172gQmV9dA40CAK+R17qgAGBaiHirDUDYIKKwTwn2+//bYAVD/22GOSBQBieHAATmXOnDmyFhTAZkpIAS4GdAkg0wPMDIu08SDIzMXZH374oeAKgx8jRoxQXfccIcSAOgVSBjQq0Bs15QwHHIU0Fsxd3HDANFrMmgl4QsCgve+++0JydgAeFEIHSBRAn7z66qsZNnN6+eWXvbT2448/LnhKSkihRTH/w2ZLAN++4YYbvK7+559/LlCbVsxf5MsswqJvaGrMVRVOkm/d0KRAV8RDCYiCWxgzSWEI++bV51nLAUchzdrms7/206dPE3YVA4A1zDnsKpbZBM0K7QfHCgQCN7lCm4cGxmZJvXr1kmaBhwshtWLeAt0PpuhTTz0l2hR4SW52S3M7DmhROLuwedOJEycyFOvA2lXhJwEi5o033hCzG2PwByOToQIdkakciIv3pNAKvgTPp9qPxTct3HOYpdCmQJbv0qWLF4C1mv9hDqtICYQ6b9WqlZigEO4nn3ySatasKZpbpYdzhHkOOFPAwsCcVfvQ4GEC4QVZ+4OwciAB8ExT9nMg7jQpgLqwTSDQAcNBJcRcDQQz1HpTw4zEPjHYlEkh9WHvGEV41QHtibm+MnPxPtNKwCnCnBQ/bA587z33irmcnJxszRZSGHNbZeJCWDEVAOGBpcDJfSsGqiBIlfNN1+dZy4G4EFJoTUBXAs+3RcvQgbetl0LN1SGMMJsh/NCOeNUBIfzhhx8Ie6vMZuxf4O8qggBiW41x48aJZxUeYAipdUsN7C1TsWJF0aCpR1PFJFUo/KqeUI/wFGMPGkUwdwG0BnxeQJWC4EiC9kSfVq9eTUD2xwNNjVmV1cfs4UBcCCnwbmGCWgUhXPZCEDGvxLtSmIzw1OK1C+aj2MQXpiRezyAfzFerNsUeMv/5z38IDiV4bxs3bizeYNUnAFs///zz6lQQ6Hv37u05z8yAv6kA9o/BfjOK8IC7//77ZWwqTh+zjwO2QGTBvnrRT1nvi4ZtE7HdIoTQnyAgN/LAbMY7UODf4tWNIuwnk3IghUqVLOV3syWVL9ARHysAJBwER9GQIUMCZfdKw3tbwIRiXu1v1zY8NGChgDD/dgMl6tWAPnHNAS2krlmVeRnh+YW2xIMNZjE+w4M3181eNMH0AuDZeFCAMJ+0A/AOpk6VF44mCCnM4KzamEq1Fe9HWyGNd8Zk5fi///57GjlypAgQvoLCO9tOnTrZatys7IuuO/I5oIU08q+R7mGccyAu3pPG+TXWw49yDmghjfILqLsf+xzQQhr711iPMMo5oIU0yi+g7n7sc0ALaexfYz3CKOeAFtIov4C6+7HPAS2ksX+N9QijnANaSKP8Auruxz4HtJDG/jWWEWLJm1s6c+YM4dthTZHBAdtVMPoDe/sLhPWiWDqG5V1ZQYDTBHoDCO2E800vIFrwoTyoX79+XggP+LY3b968kmb9A3IFFodjYQCQKxT2kjWPDmcfB2yFNPu6EH0tYRkZ0P+s6zJ9R4FVJKHi8v649kf6ZPInsnwNaIIzZszwrd7VOZAdIKDAZcJCdwXBMn78eNqxYwedP39ePpDHOti7776brrrqKqkX62PxkMC6VgC4aSF1xe4sy+Ro7mKlRqBflvUsyiuGkGKtaSgAYu3btZfF4hCccAgrbUBAHbTCtWARNzT0TTfdJNYA1o8q6BTkx8qWypUrSxkIsqac5UBcaNLMxN21Xq6ZM2cKcgGgWBSurhMuL0xZIBYCqgRofK1at6LJkyZTcnKy/Kz1hxtW0Ci+CPt9+/b1MnOBxACQMaBElC9f3tPshWkQMZ4IHcgRDjgKabBz0xwZhUOjmYm7q5oC3CZ+0DhYD4r5HiA7nXB5gQoIcxn4RhDWt956S5AXxo4dSxD62rVrqybCPiqEQkC7WMl3HqoWpfuCbyfwGlSsGT1+/LiAfFvr0OHs44CjkDohLkSDEGcm7q710gD5ADc8sIEAaA0hdYPLC0gVYO8+8sgjBFMT0CrAQ4KzJjOEFPNI4CbB3AWciz9kBTWO7Tu2ixaF+QuQMivVq19P+gQw7xo1akgfA9VlLavDmccBxzlp5jUVGTUp3N2nn35aUP1C7RXMW6WRALlpxc11qhMoCdBel112mQdNH4iDQO/LDAI+EeA3oQXr1q1rWyU05MQJE2UO+uijj2bIV+HKCoILhX6tXLkyqDFmqExHhMwBR00acs0RVBACoeZnqlu4gcPB3bXuK6OEVdXtdFRwoMAFUthA6CP6lBnUs2dPMVGhAaHhFbSotW6Y5QBLg2Ooa7eufs3ZhQsXCrD3tTWvJTizNOUMB+JOk2J+9vDDD4vnNZz3j06XSwliKN5dVTdemaSmuv8IQZXDERtFYbtDCD72pbES4uBMg6C2a9eOkiomWZM94e38mgYPj7Zt2nridCD7ORAXQoqbErCU2ANm9FujBUIzHGBsN5dJzeWBywuvqfqgwE1ZladBgwYiYHBQYe546nRw5rACs8YXRFbC/jUwYYERjG0vAEWKn+9XSf+yloWQZjWvrH3T4YwciAtzN7Nxd93ctHa4vNZLAAHAT5FvvXAmAZsXO3TjdY0VFV+VCXRUyPqYnwIyVBHqAmEDYOsmwHAc4Z0qCNMDINfj4aYpZzlgC0QWrNdWaY6cHY5u3coBfPY3aNAgmXvjAYD3o76vY6z5VRiQo/j0EYIK4QawuKac44B+TOYc77O8ZTi0ALiNV0Uwt31fsdh1AN/rQguXKVvGdr5qV1bHZz4HbDVp5jela9Qc0BwIhQNx4TgKhTG6jOZApHBAC2mkXAndD80BGw5oIbVhjI7WHIgUDmghjZQrofuhOWDDAS2kNozR0ZoDkcIBLaSRciV0PzQHbDighdSGMTpacyBSOKCFNFKuhO6H5oANB7SQ2jBGR2sORAoHtJBGypXQ/dAcsOGA7be7+gN7G45lYzSWmAGfCYsXsKom4og/4CeAlVlW8kRcH2OgQ1qTRvBFTElJoVatWhEQBiOKnu/DglmcKF8Jxv/k3/1tiNZv8O7ia29wntL8u4Lo6jpEKQeCS/fOHddnth/YK03qtATNbb645nKIgwfs57Rp06jZPc0osVBiiLW4KwYYFYBmg5o3b05FihSxL9hvoJl2XU2irduI+o7kc9aoxl4zfu48oqadiFrewZU1I+r4HFHpy4n2bnSXbubS/2kcsDV3NYcCcwALqefOnUt//PGHbMVw3333SYEDBw4INGfjxo09GLYAyp4/f76gxJcqVYqwjUPZsmVp27Zt8qtVq5YXSjyQJCZOnOjpQO4LcnvCKoDlZ5u3bKYGyQ0E4R7oDw0bNhTUCeRRKIRou2LFitSpU6eAJjOgVIBqDwJaQ0AhfWmw5PP8HTxE9NbHKEhUrBjR66M5KR/R55OJYBJ3fJ5oH6f9tI4Igu2U7qlYB8ABRyFVmlKzK50DwMft3r27CBqEDgIFoQX2LgDKFi1aJFtMfP3114K88NBDDwnmELCVQAAI++233wQpsDyDUQM9HsL03HOscZiw2HrFihWCxrB8+XKCEANZ0ErLli2jUaNGiTAB9a969eo0dOhQEVKgLQAqBoJXv359mjRpkkCI4kGR6cTjoBkLuVqeM0NAQd9tJUquzqYuo04805MjWFBBK1aaQuqUbubW/4oDfEP4JXZYGPg5kdt8TvVESzqjHRhVqlQxGGvX02XWjAbjBRlIA7EWkzy9e/c2GA1BwqydPPkZZlPiTpw4IXHIU69ePU+6CrBmM4oXL26w1lRRnuPIkSMljaFVPO0yLIqk814uBgutwSBocs4PANt6PBVyAP3+/fffDTZ9rdH+w4sW86OkKP8SzeM3i9LzIb5tJ8P4Zb2ZPn2GeXyhn5nHKT29Jh1iDjhqUiXM+mhyAFoKGEEAn1YmLhAB8Vu8eLFoMuy7AjwiOH1An3zyCfmiw2Our6BMgOELFHxsUeGbz2zV/h9mrEImBEIgCNAnICABWgmA3EAQtCPrfjF2eTzxjNxPb/Hc9JulRF8tIRr6GlGjhmnJDE0KLXo/z0vva0R0VxMz/tw/LtPTsumDcEALaZA3AuagIOxSBrQ9K1nBvoBkj9cmEF7MP32JNaQnSs3/YPIGI6QwgWEuWwnzWTxE7rnnHmrSJE04OEPnzp0FXd+a1xoGHtLbb78tURibtX/WfJ5wSfbq9mBAbfyGvsLOo1eJNm4iqlaVs1xE9Ck7j4jn0muX8QTZ3HqRSnEZIaf0tGz6IBzQQhrkjVCuXDkpgSO8oP7o3Llz1K1bN2KzWLQctqGYN2+ebPmg8kMTK1JhIOEHQ/6Q/AA4hnkytLRd//y1AaBwtXcMnE6OQmqtpHQp82zNj6aQ1uRXL+vY6/vRCAAAE82cbabX4HkqyCndzKX/0zig35MGeSvg5gXs5bBhw+T1CM8rZb+UAQMGEIQTBIQ+eEqxCdM777wj3tL+/ft7tbRhwwZxOGF7CjiOUKdCwscu28DAVVobR5y73X0b+4tOnjyZ3nvvPTGhsU8p+uF2KwxfaFGvjuOkJZvRn0/l1y/sIPpgIlH3ARyZh82L1khl7drNPP7KGyEjz/8N4XPeZ6ZBshnvlG7m0v+KA3Yzc7cOIbf57NqJxnieOxpsEoozhoVWjo0aNRIHDr+WkfPZs2d7hsZeXonjzYAlDo4jfkXjKQ9H1I8//ujJzwh/njRVP459+vTx5IHjCM4hfwQHFj80vOrgObDBQuove/BxxaukOYzgNOJfldqGMW26dz3tHrDkKWYYq1YHl+6dO67PHD9mUMLsdHT66MGpfDSmA1H+AH9Jg3mkctq4GQe2t8CcEa9c9u3bJ3NWtSeMm/Ju80CzY8NgINlb965xWz5gvtRj/O5zH9GVPCfm7TD8ElsZxO+NeQtxv8nklO6/VNzF6jlpGJc8oUACVapUKeQa4JX1dT6FXJmfgqi/QoUKflIyISqxEPFnUIErgvDaCTBKOqUHrj1uUm2FNB41Y3ZddbwGgXNHk+aAGw7YmrtuCus8mgOaA1nPAe3dzXoe6xY0B8LigBbSsNinC2sOZD0HtJBmPY91C5oDYXFAC2lY7NOFNQeyngNaSLOex7oFzYGwOKCFNCz26cKaA1nPAS2kWc9j3YLmQFgc0EIaFvt0Yc2BrOeAFtKs57FuQXMgLA7YfhYYLLaR/oww9OuAxd5Yy4kP7zVpDvhyQGtSX47kwDlgO5966qkcaFk3GQ0csNWkqvNOGjJYjavq1cfM5UBQuLmZ27SuLYs54CikWdx+1FaPtZpfTP2CNjGuD5aE8aJvQVdQA/ruu+8EmIxXK1ODBg0IYGNWmj59Oq1evVowcYEv5Et2uL6++dR5ULi5XGjr0W00bu1EWr5nFRUtWJgevaEbNa5wu1Q3ZeMXtD11J/W/tbecHzh5kAYv/i8NaNiHShZUOEVEb68ZQ3O2LKCTZ09RcoX61OfmnnRxHob2TKNA6Tv/2EUvLXmFth3ZQdWKXUWvNhlKl+ZjqJU0CtQ/ZHFKV/XEwtF2FUywGtJJ48YCs9QYsEfLXXfdxcggW2UeCUAwYBgBGBv00UcfEcN5ehZz79q1i4YMGSK4R0hnVAUaPnw41ahRQxZlAzgMS9cgtCBfXF9g7z722GOC6ysZ/PwBWgWwLaCOHTtK3XLi52/fif1U5r+16YJ8+ej6khXot2MH6dKLEmjLMybKYKMPmtKKvZvpz0G7pfSCnQupyZiOtLTHVLq17M0Sd+OYhrRyJwOP5ctLNYqUpvUpu2lKp9HUpmpLx/SV+1fRjW8xPhQ/wMpfUZR2HzkkC9NPDdwlZZ3655QulcTSnx0uhVtYFLf57NqJxvgRI0YINMnKlSs93QdGLojR+gRTt0OHDoJfCwxbBsf2wuW95ZZbjJ49e0r+06dPS/46derIOaBPnHB9JaOfP7e4uc9/3c+gnkWMbam/emr53xkTsxcRDcffZVw8sJwnbf6OryX/0j3fStzUzdPlvO1nDJGSRiknDhh7j+9zlV5+eA2Dehc3jp85LvnXHlwn9c3eNlfOnfrnlJ7WpZg5aMdRCE9cxiMSzXfDDTd4SisEBAaXFkhNmLcA9MIPYUB7YvsGpG/fvt1j/ubPn5+s9fji+gLbd8KECR5cX0+DfgLAzS1cuLC06SfZE9W6egsJ3/zu3fTk3P+jnw797GVqejLaBOZsnS8p/Ru84MlRomBxKn2JuZDdKX136u+iRSu8WpsKv1SJGo8zAcze+N6EFHXqn1O6p1MxEtBz0hAuJND7fPFuVTUnTjKuD1OJEulzNyAMgoAsiLkjSGHtIoy8mIOCFEKgE66vZLb8BYObe12xa2lSpzdp4IJhNHrZZBq9dBK1rd2EPm39oaXG9OA/5xWotRl3+OQRCSQl+odmCZT+j3GeiLGBq5QoS+2vMx8WqqVqRa6WoFP/nNJVfbFy1EIawpUE5i4cPxAMBcOpqilZoqQE161bR02bNvWEEShZsqTMvQCaDaFkE1fSsfmSIje4viqv9Rgsbm6H6m0Jv1N/n6Yb321EU9YuoI9bnacLc+WmwgmJ9FfawwRtfLOTEeotdHXRyjR34/c0bfNX1LZaK0uKGQyUjvqxp2nBiwpQv1t4IycbCtQ/FHFKt6k2KqO1uRvCZWvfvr2UevbZZ8V5BDP2pZdekjiYr/goAUKMjZuWLl1KU6dOlY2A4WCCJxjpcC7BOffxxx8TBFoRtK4Trq/Ka3d0ws19f+0H9NK3r9DB04fo4KmD9L+/TvLWXRdS7lzm7dCsyl1EvBXi4KVD6auts2jkiileTT1542OyjUT3L3sT6oL399n5zxPPWSWfU3rHmo1p9a7N1HX6o7T92A5af3gDdfnyEZrzK1DvSeoM1D+n/kslMfTn6N118toqL7BTvhjimQwFwgVvKuaaoKSkJMJOZyB4c7t06SJzT5wDEXDCxAmUVDEJpwJSjX1a4NUFgXeYqyrvLsL4uEHVhzzYwgIeZAh5uDRk2cs0cM5ITzV5WLOPve9FevDaThJ3+tyfdM2bN9HO3w/Kea1ylWntnm20rMc0uqVsfYn7bNNUavvJ08SI4GY9PPf+7rFpVL/MTY7pZ8+fpbs+bEGLt5reZCnAD4l5XSdQkwp3kFP/nNLNDsXOv6OQuh1qvAkp+IJ9V4CbC8GxzkEVz9S2DWpOquJVWWx/CBPY12RW+ULF9VXlAx3/OvcXbTyymQrnT6Ryl5XzmxVarmiBInRJPhtcXS6144+dlHr6GNUscQ3lvSBvhnoCpaMPPx/6hRILJFKlQuYDTFXg1D+ndFVPLBy1kMbCVdRjiGkO2AppTI9aD05zIIo4oB1HUXSxdFfjkwNaSOPzuutRRxEHtJBG0cXSXY1PDmghjc/rrkcdRRzQQhpFF0t3NT45oIU0Pq+7HnUUcUALaRRdLN3V+OSAFtL4vO561FHEAS2kUXSxdFfjkwNaSOPzuutRRxEHbNeTqtUtbscSjx/Yu+VNLOdjjBLCWtZwVuccP36cGIaH6tWrR/kYdynbiPvOnZf1rdnWZggNaU0aAtN0ERLQNSy3q1ixogCuASJm8+bNIbFmy5YtAp527NixkMoHXWjWbIbDYBSICwoT5eVF+o14/ez8Bd7VLOVlh1iZk+sKogKMQLFwUXDp3rnDOrPVpKpWJw0ZrMZV9epj9HLg5MmTdNttt9Gll15Ko0ePpoSEBJoxY4Ys28O615yizz77jKCVcc/Wrl3bvhtzGKOpdBGifgxIbvxL1Os1ojs7EG1fRVSRBZLroAaMOFGBIXDee5lo0CtEd7Qj+n0TMYiUc7p9yyGlOAppSLXGQaE5c+bIzZmYmEizZs2Sxd/AJVI3qRNuLrTHosWLaS+vKQVkSosWLaho0aLCuSlTpoh22rZtG+FXq1YtatnShMpUrAVg2ZdffklHjx6lmjVrUqtWrSh3boYmYVqxYgUdPnyYSpcuTehnxaSK1LJFS691q1jr+s0339CGDRuoUKFCdPfdd1O1atVU9cTIg/TFF18QtsCAtuzUqRMB9gU0fvx4WbA+f/58KlOmjMQxAqIc1V+g/iHPmjVraPbs2XTJJZeQAnFTZXEM1L41nzW8fv16XoN+TsYZUEhHj/A2cYsVI2r5MNE8Ft4nejA0xHiuloV3NiNSXHUV0YSPibYwvOl77xP17+Ocbu1UJoQdhVRrSv9cBvwJYFOA/AdUBmgT4PECT9cXN3fixImCadSvXz+pDMDZbdq0EZiUsmXLCrwKYFcefPBBSX/zzTcJC8IBtwLAsw8//FCE5bnnnpN03IxNmjQRoYFgASVi4cKFIjzIAASHyZMnS17crO+99x7NmT3HEwews/r168uDAOmYDwJNYuzYsVIGAtasWTMBTUO+SZMmyQMBQglC/4EZrARUIi1/Tv3DQwQPJSyGB9/AQys5tW/NG1LYF90i7eFG5cqa1a0EYkQeU0DnzGVTeDmf88xw9Vp36WauzPu3Ayd1i6frNp9dO9Ea37p1a8HenTvXxIrFOBgOxXCDm/v4448bCmdXjZ/BrVXQqFu3rmDvMrqgxPXt29dgp4onvWvXrpJ+8tRJiRszZoz05ZdffpHz/v37y/nGjRvlfNy4cYL7yw4eOf/0008lnbWpnOPP2v4DDzxgVK9e3WBoGElnbSr5GTBNztF39MGOnPrXp08fg1H9hVfAJWYwb6mfwcWlSqf27doF/xl6xtNvu3xe8eBJ4UqGkae8YZw9aybVTTaM/Fcaxpkz7FoqbRhPP2cYRSsbRs2b3KV7NRD+iXYchfG8A87tnXfe6akBczRoAWAXQZsAM9cfbi68mPv37xccI4CUAepTmZKqMsyrChYsKKdwykDTwYQFwZQGVm9CgQQ5xxYXIKvjBn2rWrWqxMMcBhbTrt275Fzt3tajRw+Clt+7d69X+zBF4bGFYwj9f/ppxjJignkNwr4zgcDOnPq3mM189AEeYYVLLBWn/Tm1b81rDYP/wB2+6KKLrNGBw206sm2dyuYBm7Z50+BfzrOpm49F42m2XPKzRh0+lBUpn//NnmCQU7qZK9P+Hc3dTGspBitijZdhVG5wczF/zJUrF33++ef05JNPioBgnpecnOypz4qLpDB6MT/EvBXOEdyMilReCLsiFYdzhaF0/h/GvGWCiY2d3GDevvjii8SajXr16iXCCNwmPGTuueceMamlAP917tzZY95iSwz1wFDp1mOg/rFeEVPeX/9Rh5v2rW1ZwwARR98BlQoz3ZEe54fPtIVEn48huuH69OzFmLdr2En03qdEy6ab89eDfxJdk2TmcUpPrylTQlpIw2Cjv3eDcAKBcGzevLmEff/g4MGcFL/UY6l07z33ynzSKqTQxIpUGBoRBNAzFYdzBQkKUDO3BE2GH8C6AU0KLy0eGNBsEEJocbv+w5GFeS76nlgoMUOTgfqHhxMsA2hbRWymq6Cr9j2ZfQK81Yc4jnB0FNJBL/KOU5PYCTScqJU3SDdVZw/1rKVEbfnVzC03E3vnuKVTRFWrmC06pfv0K9xTbe6Gy0Gf8tBgTri5cPTAeQJHU+rRVDF34WG1EryuMEVxA8NxhDqVRoSJDSGF5oCJy3vTiDaGGe2GgAX81VdfiUaG5sH7SXipIUAgnhOKkwmCCI0J0/ydd96RviD9kUcewYG6de0m7QMx8a233yZsLAVy6h+EFCbvLPbuwgkFrW4lp/ateUMKjx1HNPhNFsDriHhaQF/NNH/bd5jVPWqOjw4cItrJU4SHupvxj6XFO6WH1KkAheymtW4dQm7z2bUTrfFwHPFOZ367zze2wa9jxBnCQitHnjeKowQF4DhR8Tjy6xVDOU2QDsdR48aNPXmwgRPvP4MkIWzyxJ5gTzrj+hr8qkUlGwMGDDDuuOMOzzkLvOTl1zkSx0LhKYv20bdvvzU3Y0IGOL9Qh7WPPEc2lGMKeVh7Sz9VHvSB55JIMpz6xw8Fg3el89TPnl4JK0eWm/aloVD/7m3FRndixt+zvdJrHPO+d/pb76SnIeSU7p07rDNbtMBgX704ffQQ4DkRs0mBcHOxVWHKgRQqVbKUl9MGzIAZijkhXrlAS2EOqd6BWpmFuV9qaqptujWvbxjvE6EhYdbCyeSPkAdOpQIFClAxvEv0Q3hPi7kw3sn6mv9O/cNWkagbDh9/5KZ9f+UyLY7HT1u38auYyt7vVVUDTukqX5hHLaRhMjAriishfeGFF7Kiel1nlHHA1nGkNWPOXclrrrlGnDc51wPdciRxwFaTRlIndV80B+KZA9q7G89XX489KjighTQqLpPuZDxzQAtpPF99Pfao4IAW0qi4TLqT8cwBLaTxfPX12KOCA1pIo+Iy6U7GMwe0kMbz1ddjjwoOaCGNisukOxnPHNBCGs9XX489Kjhg+1mg/sA+Kq5fznYSH5gzuoKmrOWA1qRZxF+gKLz88suyZjSUJsItH0qbrssM+S/j0ZZhyIfifOSF5u0782qRrd7FX3uD00rzj1fYXF2HeMlPcOneueP7zG6hm9t1om7z2bUTq/FLliyRNZJYOxkKhVs+2DYBUgZAM/ywHjYgVb3eMFq1N4yPJhlG3wG87rIo/8qmF5kz11yL2bKdYUz6hMMlDKN0Vffp6Tl1iDlga+7G96PLefR2uLlAMpg+fboAkqEWoCcArhNrNhV2LkDFFixYQLt375a1lID6AFoByE35lStXEnBzARIGwrpN4CUBOwkwoCCkB8LVlUyWP8CoAHYEBKhShatkyZIeXPe9t5l7iAHSxk8lYuuBcWOIXh/NefMxdtBkBu/6m6jj80T7GOXgp3VE1zEEjFN6eks6xBxwFNJg56bxwNVAuLm42QF9ghsdBHgT7G+CRdGKAP4FQcVyQEZcoLcZegSYvIz0IJhDTuUZRpRWrVrlEVIsDB84cKBArEBInXB1VT9CPvrOQ9NgVxglzazyOzZ9k6uzqctwLM/05DgWVNCKlaaQOqWbufW/4oCdPeHWjHWbz66daIx3ws3FmAKZqwomRI2doTUNwJNYKVB54Or6g0dh7S5VOOHqWtuxhhk1XnBrgYXrmnbsZHO2sGE0a5FeBOZv206G8ct60+ydPsM8vtDPzOOUnl6TDjEHHDWpEmZ9TOcAAL8AnvXUU0+J9mKBke0S0nMEDkGzAm+XcYUE3hIwJjBPM4uA7AACri6Q6Bs2bOiB4wzUhh2Mim0ZQIjWY0Q9yk806QNLNsathRa9vxPRfYwJfFcTM+3cP2l5nNItVekgsPM1BcsBzP2A0AfhAgwmoDaBwOeWsJ0EPL+AvuzSpQv5w+91WxfyAazaSgpXF/uswLRG/SNHjrRmyRBm8C8ZE8bl6oGBuWZdFsDDx4l2LCZ+SlnqvIjo03mMtMdz1Qm8dcURQGIylSphHskpPS2bPggHtJCGcCMo3Fxo0w0bN8ieJgC3tpIC5QJyvJXgcAJC+5AhQ6h3796CbQtYTV+yK498l19+uZcgWXFrVT3QpgryEw4m4OoCeNqOgFgP4cQPmyUFJNTT4E7exGgf0c8LePexK72z18T8m/N89BqxZ4xo8RIzvQbPU0FO6WYu/Z/GAS2kIdwKbnBzFUbU+++/L15coOqBGPpS0AF/+OEHEQYIEs8/M/TCrjwyQjOiPjwk4NjzfUA44epmaMwnItAWEpK1RTuiH34her4r0e496bi16mHTo5tZ46/bzfen/zeEz9kkbpBsxjulm7n0v+KA3czcrUPIbT67dqIx3gk3V42JTUfZKAnYtFZHDzZQApYu4oFXyyazhFU5dbQrzx5kL9xd3qtFyrvF1VX1h3zEO1F/uLWLFqdX2e4BS55ihrFqdXoaQk7p3rnj+swWiCzYVy/qya+EP9aPgXBz3YwdmLIpKSmCmauQ492Us+bBO1Vg1vrboMgNrq61riwJw7HE2Lqyx6e/BpzS/ZWJwzgtpHF40fWQo4sDtkIaXcPQvdUciF0OaMdR7F5bPbIY4YAW0hi5kHoYscsBLaSxe231yGKEA1pIY+RC6mHELge0kMbutdUjixEOaCGNkQuphxG7HNBCGrvXVo8sRjighTRGLqQeRuxyQAtp7F5bPbIY4YAW0hi5kHoYscsBW2QG/YF97F70oEZm8LrQlSOITqbwOtAuRIXT1oQGquTAaqK149JzNOOF35pC5oCtkIZcoy4YOxzYMYdhUR4n4kVndAEbXQUZWcGVkK4hWr+Y6B8WcCwQb/o3l88bO3zJ5pE4CqnTErRgNW42j083l8YBQKyoxeHNmzcPDNmpuLYc0JxMvdcSXZxoht381+5BhN/0zozcsMxNCZ0nAAcchTRA2bhO2rRpEwFaE/CZderU8cBrKqbMmTOHEhISKDExkWbNmkWAUWnbti1dffXVksUpHbChixcvZiVmUIMGDTy4vKr+n3/+mTZv2cxgBw1oxowZgv4AwLHGjRurLF7HoHB1lw4k2sPwmyk7TUCxz9qbdd3ai6g84xodYvzcpYxif2S3GV+0IoOOfcgAsYxd5Jb2LGEz+i2ui9u4uAALdUeiWo+ml07h9r/uT3TiCOPFMFL+fWw+F2S0/DgkRyHVmjLjXTFz5kzq3r27LNguVaoUTZw4kSC0wM5V9NFHHwn27vbt2ykpKUkE9syZMzR8+HDJEigdacA/AqAY8JTGjh0rmEjdunVT1dOyZcto1KhRohEBjl29enUaOnSorZB6CroJ/LGHKHW/aa7C1EUYdPqQefyax7lrM1ECQ6IABG0Tz0F3X8NwKtvMdKd/CPmEhxhgm03ohIJEx1gQl7DWVkK6+TMG1u7NZjZXlJ9BtnduIRp1K1HfHU41x2a6HS6FW1gUt/ns2om2eEbVE+iTrl27ero+ZcoUgUFBmqLWrVsLpAlrWxVlMOCYJ2yXzmBhUn+HDh0M4N/i99BDD2Won9H/pP7Bgwcbql1r/Z6GLIGgcXXfqG4Y/61oqSEtmLLKMM6eSo+f0tIwBpQ1jB3pY5XELxlCBfHnz6bnRUjl37M0Pf7E/vTwsMqGMbCcYZw8YMb9yri9qGfVyPQ8cRRy1KSx+WgKfVQ7d+4koPutX7/eY+LClMUP5qnV3ASO7Z13MqpeGgHqxEr+0gGJgvqx7YQCBEN43rx5opmtSPioq1OnTryxWR6p1rd+a1sIB42r61uBOk+sRLToBYbyXM5eX4ZIUSiEqb8ycmD6eFX2DMfrOjG0/xqiyWwZlK1CdP3DREnN0rP9ddYMj7olPQ6h1ZM471PecXFwpoU0yIuMOSgI80sg/1lJzTdVnBOerr/0E7jpmYDJq4gByyR4AphAFsKWEuXLl7fE2AeBq4vtLEDou6rTvkSAlIlNGbsohaWenUlJvGPacQb23rebzeM04QpQVJKS7mHkQHZGrWaz9tcN/HuCqPTrRN2WssCzJxgmdsECRBWv966paDXv8zg500Ia5IUuV66clMARXtJApDScXR5/6SVLmM6RdevWUdOmLAxMCINKlvR2nFx4ofvLp3B1UQ9wdcMSUoCLQUCfYEEDTbjdPPr+F+A8oMPriYrXNsPqP3kw7xfDv9NHiN5LZiH/zRRQvKrB6x6MrfkElTuuj8wNTcFwADf3zTffTMOGDRPcW2g3bMo0YMAAAkJfuIQd2ABsjZ3ZFi1aJMj42JICr8LUjmnhtqHM6JDruTgPe10ZuX73IqK5/B71NxuHzk3YrIlp6iP8KoYFbv9y83whx3/VhegoO4SO8Q/bT1yQiz3JaQ+d0uWJ/uD6J7Knet+37DiaZz4I1owyy8fZv/tHcZwxJtBwgQaPfWCeeILNtDTyNXVVfCjHV199VbafwHwTBLN6xMgRoVTlKQPhV55lT6SbAMtOBqrbnmjZRyxEDI4NglY9mspC5vPMT2AzvdqNjHS/it+ZDiZKLET05E9Epw6z0LLwrVtils+Tm6h+2/TyHb8iGtuQHwLbiMY9YObB3jLVOV8cki1aYLCvXpw+eohF3p46fYqnZgd4x7+ign+b2WNUe7KEZZpmdqes9W2fSVSGnTv5LrPGuguf5a01dn3D21CU4Qm4z9xT1YA8O1iLJvD8vOytKjbujlpI4+6S6wFHGwdshTTaBqL7qzkQqxzwmUTE6jD1uDQHopcDWkij99rpnscJB7SQxsmF1sOMXg5oIY3ea6d7Hicc+H8tzaSF5sZYlgAAAABJRU5ErkJggg==;" vertex="1" parent="1">
          <mxGeometry x="590" y="160" width="233" height="189" as="geometry" />
        </mxCell>
      </root>
    </mxGraphModel>
  </diagram>
</mxfile>
